# xmcd
#
# Track frame offsets: 
#        150
#        23403
#        54423
#        89565
#        111730
#        133213
#        157288
#        181968
#        197848
#        219185
#
# Disc length: 2963 seconds
#
# Revision: 1
# Processed by: cddbd v1.5.2PL0 Copyright (c) Steve Scherf et al.
# Submitted via: ExactAudioCopy v1.0b1
#
DISCID=910b910a
DTITLE=Владимир Коровин - Гитарный Клуб
DYEAR=1997
DGENRE=Instrumental Rock
TTITLE0=Воскресные Новости
TTITLE1=Ночной Блюз
TTITLE2=Гитарный Клуб
TTITLE3=Долина Грез
TTITLE4=Number One
TTITLE5=Леди Рок
TTITLE6=Черный Квадрат
TTITLE7=Фантазия
TTITLE8=Искатели Счастья
TTITLE9=Маленький Подарок
EXTD=
EXTT0=
EXTT1=
EXTT2=
EXTT3=
EXTT4=
EXTT5=
EXTT6=
EXTT7=
EXTT8=
EXTT9=
PLAYORDER=
